<svg xmlns="http://www.w3.org/2000/svg" width="340" height="210" viewBox="0 0 340 210"><rect x="1" y="1" width="338" height="208" rx="12" fill="#161b22" stroke="#30363d" stroke-width="1"/><text x="20" y="34" font-family="Segoe UI,Helvetica,Arial,sans-serif" font-size="15" font-weight="700" fill="#e6edf3">🥧 Languages (all repos)</text><circle cx="95" cy="128" r="58" fill="none" stroke="#3572A5" stroke-width="20" stroke-dasharray="169.0 195.4" stroke-dashoffset="0.0" transform="rotate(-90 95 128)"/><circle cx="95" cy="128" r="58" fill="none" stroke="#3178c6" stroke-width="20" stroke-dasharray="117.1 247.4" stroke-dashoffset="-169.0" transform="rotate(-90 95 128)"/><circle cx="95" cy="128" r="58" fill="none" stroke="#A97BFF" stroke-width="20" stroke-dasharray="43.8 320.6" stroke-dashoffset="-286.1" transform="rotate(-90 95 128)"/><circle cx="95" cy="128" r="58" fill="none" stroke="#3fb950" stroke-width="20" stroke-dasharray="10.1 354.3" stroke-dashoffset="-329.9" transform="rotate(-90 95 128)"/><circle cx="95" cy="128" r="58" fill="none" stroke="#563d7c" stroke-width="20" stroke-dasharray="9.6 354.8" stroke-dashoffset="-340.0" transform="rotate(-90 95 128)"/><circle cx="95" cy="128" r="58" fill="none" stroke="#e34c26" stroke-width="20" stroke-dasharray="7.4 357.0" stroke-dashoffset="-349.6" transform="rotate(-90 95 128)"/><circle cx="95" cy="128" r="58" fill="none" stroke="#79c0ff" stroke-width="20" stroke-dasharray="7.4 357.0" stroke-dashoffset="-357.0" transform="rotate(-90 95 128)"/><rect x="185" y="68" width="11" height="11" rx="3" fill="#3572A5"/><text x="203" y="78" font-family="Segoe UI,Helvetica,Arial,sans-serif" font-size="12" fill="#e6edf3">Python</text><text x="320" y="78" text-anchor="end" font-family="Segoe UI,Helvetica,Arial,sans-serif" font-size="12" fill="#8b949e">46%</text><rect x="185" y="89" width="11" height="11" rx="3" fill="#3178c6"/><text x="203" y="99" font-family="Segoe UI,Helvetica,Arial,sans-serif" font-size="12" fill="#e6edf3">TypeScript</text><text x="320" y="99" text-anchor="end" font-family="Segoe UI,Helvetica,Arial,sans-serif" font-size="12" fill="#8b949e">32%</text><rect x="185" y="110" width="11" height="11" rx="3" fill="#A97BFF"/><text x="203" y="120" font-family="Segoe UI,Helvetica,Arial,sans-serif" font-size="12" fill="#e6edf3">Kotlin</text><text x="320" y="120" text-anchor="end" font-family="Segoe UI,Helvetica,Arial,sans-serif" font-size="12" fill="#8b949e">12%</text><rect x="185" y="131" width="11" height="11" rx="3" fill="#3fb950"/><text x="203" y="141" font-family="Segoe UI,Helvetica,Arial,sans-serif" font-size="12" fill="#e6edf3">Inno Setup</text><text x="320" y="141" text-anchor="end" font-family="Segoe UI,Helvetica,Arial,sans-serif" font-size="12" fill="#8b949e">2%</text><rect x="185" y="152" width="11" height="11" rx="3" fill="#563d7c"/><text x="203" y="162" font-family="Segoe UI,Helvetica,Arial,sans-serif" font-size="12" fill="#e6edf3">CSS</text><text x="320" y="162" text-anchor="end" font-family="Segoe UI,Helvetica,Arial,sans-serif" font-size="12" fill="#8b949e">2%</text><rect x="185" y="173" width="11" height="11" rx="3" fill="#e34c26"/><text x="203" y="183" font-family="Segoe UI,Helvetica,Arial,sans-serif" font-size="12" fill="#e6edf3">HTML</text><text x="320" y="183" text-anchor="end" font-family="Segoe UI,Helvetica,Arial,sans-serif" font-size="12" fill="#8b949e">2%</text><rect x="185" y="194" width="11" height="11" rx="3" fill="#79c0ff"/><text x="203" y="204" font-family="Segoe UI,Helvetica,Arial,sans-serif" font-size="12" fill="#e6edf3">Other</text><text x="320" y="204" text-anchor="end" font-family="Segoe UI,Helvetica,Arial,sans-serif" font-size="12" fill="#8b949e">2%</text></svg>